PathFileType	4	(X/Y/Z)	C:\Users\°ÂÌØÂü\Desktop\20210112\bx_y_10_1801-Unnamed.trc
DataRate	CameraRate	NumFrames	NumMarkers	Units	OrigDataRate	OrigDataStartFrame	OrigNumFrames
50.00	50.00	       5	0	mm	50.00	293	       468
Frame#	Time	
		

293	5.840	-479.41306	259.16870	920.50812	-517.97375	-72.09231	142.38466	-675.50244	174.07883	153.44501	-674.43622	53.78363	157.52745	-818.79559	-104.89334	653.91931	-702.81830	150.32597	210.21272	-807.64435	279.13339	672.77240	-532.23016	243.98618	484.25751	-591.02112	-92.39433	510.84705	-471.89136	-61.29216	928.25024	-642.54272	286.53522	467.89270	-548.19586	-40.35086	466.54654	-586.19006	288.89130	524.37555	-742.83527	-48.83639	699.00250	-665.17249	-69.42294	161.63702	-606.47882	-97.29529	547.90778				-563.93329	14.57573	544.30518	-762.99347	223.80185	206.14568	-624.84515	-80.78784	157.00745	-882.65778	296.13382	144.58998				-603.16626	18.59308	166.51721	-559.21301	-39.43146	162.38623	-544.52118	182.08609	541.75848	-594.38159	220.29115	171.09837	-666.59186	297.68082	161.37398	-629.39844	304.11295	161.83945	-560.44135	260.78574	163.35303	-528.27448	304.62219	146.55412	-300.00757	106.52647	1145.45972	-722.54327	301.76001	595.23126	-740.05621	216.73186	698.57727	-792.24310	169.05040	189.16136				-758.56586	-8.60568	206.56270	-791.70099	57.60001	178.90363	-657.64935	-82.47218	451.73630	-876.03320	-78.59757	141.50241	-1051.51782	84.06654	735.79626	
294	5.860	-476.17752	260.95004	914.09125	-516.99487	-72.76146	143.26729	-675.26990	174.15167	153.21581	-674.23871	53.67747	157.15675	-818.31732	-104.06001	652.93768	-702.95764	150.35228	210.11674	-806.94122	279.96588	670.64874	-531.07111	244.42311	483.53601	-589.95709	-91.74770	509.83218	-469.13239	-59.07105	922.90692	-641.12128	286.89090	466.50476	-547.46313	-40.53098	466.05914	-584.48297	289.48318	523.41919	-741.95593	-47.32367	697.32062	-665.14044	-69.12616	161.73569	-605.63196	-96.93492	547.59656	-616.79004	291.15244	551.94385	-562.43481	15.02055	544.17786	-762.70837	223.88577	206.14613	-624.89972	-80.55746	157.47331	-882.53406	296.09598	144.57982				-603.47589	18.54961	167.07457	-559.22382	-39.51635	162.41570	-543.52423	182.62921	541.13654	-594.68079	220.09433	171.55098	-666.48798	297.67334	161.60454	-629.48566	304.16525	161.94037	-560.44135	260.78574	163.35303	-527.89392	304.52032	146.47986	-298.10818	109.02266	1139.60608	-721.13074	302.75491	593.49268	-739.69928	217.50652	696.18634	-792.23108	168.79518	188.99081				-758.30426	-8.38734	206.72789	-791.68524	58.24551	179.23103	-657.18365	-82.36642	451.50272	-876.05151	-78.64049	141.43311	-1050.77478	85.23890	733.51849	
295	5.880	-473.69989	262.71133	908.74615	-517.02679	-72.84515	143.61249	-675.35400	174.16393	153.13885	-674.17053	53.59808	156.68828	-817.06158	-102.49604	651.75220	-702.73303	150.22266	210.17055	-805.70465	281.53778	669.81744	-529.57715	244.69310	482.89026	-588.46655	-91.31190	509.36002	-465.95078	-56.59312	917.55273	-639.89020	288.12973	466.21576	-546.04645	-39.94688	465.78732	-583.51276	290.74399	522.79340	-741.87006	-46.48853	695.80145	-665.31427	-68.87502	162.03711	-604.36902	-96.61178	547.11798	-615.22382	291.95956	551.00232	-561.46790	15.89084	543.55457	-762.72833	223.90240	206.15839	-625.05725	-80.09895	157.12640	-882.54730	296.17606	144.64073				-603.17273	18.59064	166.70631	-559.21545	-39.62504	162.30644	-542.23663	183.68069	540.17041	-594.50708	220.24184	171.55896	-666.47998	297.68750	161.47954	-629.39178	304.17365	161.86824	-560.48065	260.79099	163.25395	-528.32758	304.30182	146.55113	-296.22855	111.63466	1134.43115	-719.74231	303.75650	592.29901	-738.88013	218.65486	695.25244	-792.25818	169.07037	189.14450				-757.89136	-7.92694	206.81097	-791.82373	58.61006	179.67412	-655.27887	-82.40147	451.51263	-876.41632	-78.41487	141.50113	-1049.30725	86.95466	731.15222	
296	5.900	-471.18164	264.31476	903.30157	-517.15479	-73.10112	143.52171	-675.25659	174.24059	153.32292	-674.32422	53.99969	156.64296	-815.79346	-101.68221	650.73340	-702.56653	150.15103	210.23874	-804.89807	281.80685	667.78607	-528.48816	245.35234	481.54321	-586.85809	-90.56898	508.85623	-463.15775	-54.61361	913.41650	-638.75391	288.43262	464.97079	-544.67896	-38.86847	464.56076	-581.72906	291.01706	520.98462	-740.68677	-44.78527	694.38843	-665.26721	-68.75896	162.27261	-602.66388	-95.45508	546.15088	-613.46802	292.89706	550.05786	-559.61609	16.42542	542.71576	-762.42340	223.91463	206.09158	-624.58942	-79.58614	157.43234	-882.70941	296.17542	144.57637				-603.12543	18.65794	166.55554	-559.08362	-39.65293	162.28886	-540.52661	184.60526	539.62384	-594.35968	219.96771	171.45381	-666.39722	297.48300	161.42221	-629.39178	304.17365	161.86824	-560.48065	260.79099	163.25395	-528.45087	304.21259	146.42717	-294.14157	114.36964	1129.92822	-718.70081	304.88470	590.94342	-737.56146	219.48401	693.60895	-791.63123	168.89250	189.10715				-757.39807	-7.31765	207.08765	-791.58551	59.02481	179.87318	-654.30444	-81.68354	450.78711	-876.31836	-78.40947	141.43430	-1047.82300	87.93289	729.45673	
297	5.920	-468.44467	266.07379	898.48676	-517.35822	-72.79966	142.91087	-675.22650	174.05533	153.23961	-674.25818	53.75035	155.64561	-814.40442	-100.24928	650.01703	-702.64905	150.34972	210.35564	-803.21808	282.76123	666.63055	-527.14825	246.24892	480.85364	-585.10345	-89.98899	508.56500	-459.88861	-52.69832	909.89282	-637.60437	289.38605	464.73898	-543.51453	-38.40660	463.93628	-580.33557	292.72791	521.29962	-739.26593	-42.66001	693.31848	-665.00269	-68.60799	162.76688	-600.70325	-94.56088	546.38812	-612.30548	293.38229	549.12531	-558.43018	17.97719	542.10797	-762.31409	224.12920	206.31465	-624.35980	-79.97128	158.98849	-882.54846	295.94385	144.48776	-704.22083	75.28038	212.00856	-602.89117	18.82742	166.41335	-559.08362	-39.65293	162.28886	-539.49512	185.39703	539.09344	-594.16931	219.97330	171.52028	-666.19049	297.44482	161.11365	-629.21527	304.17847	161.78885	-560.55365	260.79083	163.13287	-528.31146	304.48114	146.56902	-291.94962	117.21085	1125.78369	-716.93951	305.91797	589.92371	-736.17627	221.09135	692.97894	-791.50848	168.63780	189.10057				-756.94421	-7.13853	207.67004	-791.21094	59.20582	180.15472	-652.80621	-81.03183	450.65359	-876.16400	-78.25737	141.14417	-1046.43713	89.18591	727.80334	
